<?xml version="1.0" standalone="no"?>
<!DOCTYPE svg PUBLIC "-//W3C//DTD SVG 20010904//EN"
 "http://www.w3.org/TR/2001/REC-SVG-20010904/DTD/svg10.dtd">
<svg version="1.0" xmlns="http://www.w3.org/2000/svg"
 width="406.000000pt" height="406.000000pt" viewBox="0 0 406.000000 406.000000"
 preserveAspectRatio="xMidYMid meet">
<metadata>
Created by potrace 1.14, written by Peter Selinger 2001-2017
</metadata>
<g transform="translate(0.000000,406.000000) scale(0.100000,-0.100000)"
fill="#000000" stroke="none">
<path d="M780 3061 c-68 -13 -112 -52 -127 -111 -2 -8 -5 -90 -7 -181 -3 -177
-10 -207 -56 -241 -21 -16 -59 -24 -116 -27 -7 -1 -11 -23 -10 -58 l1 -58 42
-2 c56 -2 93 -21 116 -61 17 -29 20 -56 22 -207 2 -146 6 -180 21 -211 29 -57
81 -80 194 -84 84 -3 80 -6 77 57 -2 52 -4 56 -27 59 -121 16 -124 21 -127
222 -1 85 -7 170 -13 188 -14 41 -44 72 -83 86 l-27 10 42 22 c68 33 77 65 81
258 2 106 8 171 16 186 15 28 49 42 100 42 l39 0 0 60 0 60 -62 -1 c-33 -1
-77 -4 -96 -8z"/>
<path d="M3347 3038 c1 -18 2 -45 2 -60 1 -26 4 -28 41 -28 52 0 86 -17 100
-50 6 -15 11 -90 12 -171 1 -79 5 -160 11 -179 11 -44 41 -77 82 -92 l32 -11
-41 -22 c-70 -37 -80 -65 -83 -249 -4 -184 -14 -220 -66 -232 -18 -4 -44 -6
-59 -5 -28 1 -28 0 -28 -58 0 -34 5 -61 11 -63 27 -9 171 11 200 28 69 40 74
57 77 247 4 243 21 281 134 290 l43 4 3 59 3 59 -49 1 c-62 1 -108 31 -121 79
-5 19 -10 100 -10 182 -1 81 -7 166 -12 189 -20 76 -79 108 -209 113 l-75 3 2
-34z"/>
<path d="M1290 2959 c-161 -53 -296 -192 -340 -353 -22 -77 -24 -206 -4 -278
49 -187 199 -335 383 -378 76 -18 231 -8 300 19 105 42 198 126 254 229 l28
52 -121 0 -122 0 -31 -32 c-67 -66 -183 -91 -286 -62 -78 22 -170 115 -195
198 -25 80 -18 183 17 252 33 66 112 136 174 156 102 33 225 6 292 -66 l35
-36 119 0 c118 0 118 0 111 23 -9 30 -79 131 -112 163 -96 91 -182 125 -327
130 -92 4 -121 1 -175 -17z"/>
<path d="M2177 2718 c-37 -128 -69 -240 -71 -248 -10 -37 -159 -550 -172 -588
-8 -23 -14 -47 -14 -52 0 -6 22 -10 48 -10 l49 0 41 143 c23 78 93 322 157
541 63 220 115 406 115 413 0 30 22 8 76 -79 32 -51 98 -155 146 -231 48 -75
88 -143 88 -151 0 -8 -55 -100 -122 -206 -68 -105 -131 -204 -140 -221 -10
-16 -25 -41 -34 -54 l-16 -25 113 0 114 1 95 169 c52 93 98 169 101 170 4 0
50 -76 104 -170 l97 -170 110 0 c84 0 109 3 105 13 -2 6 -73 119 -156 250
-122 193 -149 242 -141 257 5 10 75 122 154 249 l145 231 -112 0 -113 0 -94
-170 c-52 -93 -97 -167 -100 -164 -3 3 -46 78 -96 167 l-91 162 -159 3 -159 2
-68 -232z"/>
<path d="M278 1595 c-68 -18 -113 -43 -162 -91 -177 -175 -129 -472 94 -582
73 -36 198 -41 277 -11 56 21 137 89 165 136 l17 29 -38 -1 c-29 0 -47 -8 -79
-37 -52 -47 -85 -64 -148 -75 -162 -30 -311 97 -319 271 -11 257 273 395 460
224 43 -39 60 -48 89 -48 20 0 36 3 36 6 0 10 -41 67 -64 89 -84 82 -218 119
-328 90z"/>
<path d="M1004 1595 c-105 -24 -194 -99 -242 -204 -22 -46 -26 -70 -26 -141 0
-113 27 -182 98 -254 77 -79 129 -100 246 -101 83 0 102 3 150 27 167 82 243
268 184 451 -30 91 -128 186 -224 216 -54 17 -130 19 -186 6z m184 -80 c92
-39 156 -127 170 -234 7 -52 5 -72 -12 -125 -43 -126 -133 -194 -261 -195
-154 -2 -275 123 -277 284 -1 56 4 76 33 132 19 37 50 79 71 96 76 61 188 78
276 42z"/>
<path d="M2907 1599 c-121 -19 -232 -115 -271 -234 -57 -178 20 -362 183 -443
49 -24 68 -27 151 -27 85 0 101 3 153 29 55 28 122 89 145 132 10 18 7 20 -31
19 -33 0 -47 -6 -66 -28 -68 -80 -207 -111 -309 -67 -60 26 -115 82 -145 149
-16 34 -22 65 -21 121 1 89 17 132 74 194 110 119 286 120 399 2 28 -29 43
-36 72 -36 31 0 36 3 32 19 -6 22 -56 77 -104 113 -64 48 -171 72 -262 57z"/>
<path d="M1526 1253 c1 -186 2 -341 3 -345 0 -4 65 -6 144 -4 171 3 225 18
295 81 152 136 143 408 -17 541 -58 48 -118 62 -280 63 l-146 2 1 -338z m341
241 c83 -40 135 -136 134 -244 -1 -101 -15 -142 -66 -199 -53 -58 -108 -76
-235 -76 l-104 0 -1 269 c0 244 1 269 17 275 9 3 58 5 109 4 77 -2 101 -7 146
-29z"/>
<path d="M2169 1578 c-1 -18 -1 -485 0 -589 l1 -86 180 -1 180 0 0 34 c0 20
-5 34 -12 35 -7 0 -73 0 -145 0 -125 0 -133 1 -134 19 0 11 0 49 0 85 0 36 0
81 0 100 l1 35 146 0 145 0 -3 37 -3 37 -142 -1 c-79 0 -143 3 -144 8 0 5 -1
47 -1 94 0 47 1 96 1 110 l1 24 143 3 142 3 3 33 3 32 -180 0 c-138 0 -181 -3
-182 -12z"/>
<path d="M3375 1249 c0 -364 -1 -358 48 -345 l22 5 0 338 0 338 -35 3 -35 3 0
-342z"/>
<path d="M3532 1555 c13 -19 65 -96 116 -170 l93 -136 -111 -161 c-62 -88
-114 -166 -116 -173 -4 -9 6 -13 35 -12 l40 1 97 143 97 144 96 -145 96 -146
43 2 42 1 -17 26 c-9 14 -60 90 -115 168 -54 79 -98 147 -98 153 0 5 45 75
100 156 136 198 130 184 78 184 l-43 -1 -91 -140 -91 -141 -93 141 -93 141
-43 0 -44 0 22 -35z"/>
</g>
</svg>
